<?xml version="1.0" encoding="UTF-8"?>
<svg id="Layer_2" data-name="Layer 2" xmlns="http://www.w3.org/2000/svg" viewBox="0 0 60.88 77.1">
  <defs>
    <style>
      .cls-1 {
        stroke: #1c201f;
        stroke-width: 5px;
      }

      .cls-1, .cls-2 {
        fill: none;
        stroke-dasharray: 3.5 8;
        stroke-linecap: round;
        stroke-linejoin: round;
      }

      .cls-3 {
        fill: #1c201f;
      }

      .cls-2 {
        stroke: #fff;
        stroke-width: 4px;
      }
    </style>
  </defs>
  <g id="A">
    <path id="A-2" data-name="A" class="cls-3" d="M19.84,17.16c-.82-.03-4.89-.16-8.09,1.21-2.84,1.22-4.36,3.35-6.88,6.88-1.07,1.5-2.24,3.17-3.24,5.66C-.11,35.32-.04,39.12.02,41.03c.09,3.1.7,5.62,1.21,7.28,1.05,3.38,2.51,5.77,3.24,6.88,1.79,2.71,3.09,4.69,5.66,6.07,3.36,1.8,7.47,1.82,7.99,1.82.22,0,1.38-.01,2.93.1,1.97.14,2.97.22,3.84.71,1.16.64,1.02,1.2,2.33,2.02,1,.62,1.89.81,2.93,1.01,1.04.2,2.37.36,5.16.2,1.82-.1,3.63-.2,6.07-.71.83-.17,3.05-.67,5.56-1.92,1.11-.55,1.73-.98,2.12-1.72.52-.96.41-2.01.3-3.03-.12-1.16-.46-2.12-.61-2.53-.28-.78-.44-.94-.71-1.82-.13-.43-.32-1.03-.4-1.82-.08-.74-.15-1.31,0-1.82.32-1.09,1.44-1.28,3.34-2.43,1.13-.68.6-.53,3.34-2.53,2.54-1.85,2.86-1.88,3.54-2.73.7-.87,1-1.66,1.62-3.24.42-1.08,1.02-2.65,1.31-4.75.19-1.34,0-1.14,0-5.46,0-3.21.1-3.8-.4-4.75-.21-.4-.33-.49-2.53-2.63-2.52-2.45-2.46-2.42-2.93-2.83-1.46-1.26-1.52-1.09-3.54-2.73-2.03-1.65-2.16-1.97-3.13-2.43-.95-.44-1.76-.56-3.54-.71-3.07-.25-5.48-.29-6.07-.3-7.29-.11-6.97-.06-7.28-.1-2.6-.35-4.03-.94-4.85-.1-.84.85-.14,2.21-1.11,2.93-.44.33-.86.24-2.73.2-.94-.02-1.89.03-2.83,0Z"/>
    <g>
      <line class="cls-1" x1="23.38" y1="2.5" x2="23.38" y2="74.6"/>
      <line class="cls-2" x1="23.38" y1="2.5" x2="23.38" y2="74.6"/>
    </g>
  </g>
</svg>