<?xml version="1.0" encoding="UTF-8"?>
<svg id="Layer_2" data-name="Layer 2" xmlns="http://www.w3.org/2000/svg" viewBox="0 0 61.16 56.71">
  <defs>
    <style>
      .cls-1 {
        fill: #1c201f;
        stroke: #1c201f;
        stroke-linecap: round;
        stroke-linejoin: round;
        stroke-width: 2px;
      }
    </style>
  </defs>
  <g id="B">
    <path class="cls-1" d="M27.68,1.14c-1.18-.49-2.14.43-4.75,1.62-3.35,1.52-3.54.81-6.47,2.33-1.22.63-.63.46-4.04,2.53-1.1.66-1.8,1.06-2.53,1.92-.45.53-1.19,1.4-1.31,2.63-.08.81.19.97,0,1.52-.23.65-.76.8-2.33,1.72-1.62.95-2.43,1.58-2.83,1.92-1,.84-1.29,1.3-1.42,1.52-.39.69-.49,1.29-.61,2.12-.23,1.59.09,1.59-.1,3.13-.17,1.4-.5,1.97-.1,2.63.11.18.15.17.71.91.42.56.63.83.71,1.01.36.8.16,1.6.1,1.82-.15.61-.36.64-.81,1.52-.47.91-.76,1.49-.71,2.22.08,1.04.82,1.75,1.01,1.92.53.47.74.31,1.52.81.18.12,1.14.74,1.82,1.92.41.71.54,1.32.71,2.12.25,1.18.08,1.32.3,2.73.21,1.34.32,2.03.81,2.73.34.49.81.93,1.21,1.31.56.53.69.56,1.11,1.01.39.42.42.56,1.01,1.31.56.72.83,1.08,1.01,1.21.68.52,1.72.75,2.63.51.99-.27,1.1-.92,1.92-.91.48,0,.83.23,1.42.61.75.48.92.83,1.62,1.42.4.33.84.6,1.72,1.11,1.55.91,2.33,1.37,2.83,1.52.89.26,1.84.17,3.74,0,2.04-.19,2.61-.48,2.83-.61.46-.26.46-.36,1.72-1.52.85-.77.68-.57,2.22-1.92,1.67-1.46,1.8-1.64,2.33-1.82,1.13-.38,2.2-.1,2.53,0,.98.3.98.7,2.02,1.11,1.29.5,2.46.35,2.73.3.51-.08,1.9-.38,2.93-1.52.57-.63.44-.85,1.31-2.53.49-.94.93-1.78,1.62-2.63.94-1.17,1.9-1.83,2.93-2.53,1.48-1.01,1.7-.87,3.24-1.92,1.16-.8,1.9-1.3,2.63-2.22.53-.66,1.39-1.75,1.52-3.34.12-1.4-.4-2.48-.71-3.13-.59-1.23-1.42-2.11-2.02-2.73-1.09-1.13-1.44-1.13-1.72-1.82-.2-.5-.25-1.07.2-2.93.51-2.1.79-2.33,1.11-3.74.22-.96.53-2.37.3-4.15-.05-.38-.28-2.01-1.31-3.84-.69-1.23-1.44-2.55-2.93-3.34-1.44-.76-2.86-.63-5.26-.4-2.35.22-2.37.61-4.25.61-.74,0-1.84-.17-4.04-.51-2.13-.32-2.67-.48-3.24-.71-.44-.18-1.41-.58-2.43-1.42-1.02-.84-.99-1.22-2.12-2.12-.74-.59-.82-.49-1.82-1.21-1.58-1.15-1.58-1.55-2.22-1.82Z"/>
  </g>
</svg>