<?xml version="1.0" encoding="UTF-8"?>
<svg id="Layer_2" data-name="Layer 2" xmlns="http://www.w3.org/2000/svg" viewBox="0 0 139.18 62.72">
  <defs>
    <style>
      .cls-1 {
        fill: #797874;
        stroke: #797874;
      }

      .cls-1, .cls-2, .cls-3, .cls-4, .cls-5, .cls-6 {
        stroke-linecap: round;
        stroke-linejoin: round;
      }

      .cls-1, .cls-3, .cls-4, .cls-5, .cls-6 {
        stroke-width: 3px;
      }

      .cls-2 {
        stroke-width: 4px;
      }

      .cls-2, .cls-7, .cls-4 {
        fill: #1c201f;
      }

      .cls-2, .cls-4, .cls-6 {
        stroke: #1c201f;
      }

      .cls-3 {
        fill: #484443;
        stroke: #484443;
      }

      .cls-5 {
        fill: #5d5c5a;
        stroke: #5d5c5a;
      }

      .cls-6 {
        fill: none;
      }
    </style>
  </defs>
  <g id="E">
    <circle class="cls-2" cx="21.21" cy="31.53" r="19.21"/>
    <g>
      <line class="cls-6" x1="49.73" y1="32.95" x2="75.31" y2="32.95"/>
      <polygon class="cls-7" points="80.82 32.95 73.06 36.12 74.9 32.95 73.06 29.78 80.82 32.95"/>
    </g>
    <path class="cls-4" d="M102.11,1.5c-.92.03-1.36,1.35-2.93,4.25-1.74,3.21-2.36,3.73-2.83,4.04-.86.56-1.75.71-3.54,1.01-2.91.48-3.39-.02-5.16.61-1.51.54-2.51,1.39-3.13,1.92-.78.67-1.9,1.64-2.63,3.34-.25.58-.82,2.11-.61,4.04.16,1.41.75,2.49,1.92,4.65.38.71.99,1.76,2.12,3.84.62,1.14.92,1.71.91,2.53-.01.98-.46,1.33-.81,2.53-.24.82-.23,1.63-.2,3.24.04,2.72.42,4.7.51,5.16.33,1.7.5,2.56,1.01,3.44.57.99,1.12,1.36,2.63,2.73,1.85,1.67,1.26,1.33,3.54,3.44.65.6,2.34,2.15,4.65,3.94,2.26,1.76,2.74,1.9,3.24,1.92,1.15.05,1.69-.58,3.84-.71.76-.04,1.17-.06,1.72.1,1.04.31,1.43.97,2.43,1.82.53.45,1.59,1.37,2.73,1.72,1.47.45,2.75-.11,5.26-1.21,2.17-.95,3.48-1.53,4.55-2.93.76-.99.79-1.6,1.62-2.02,1.2-.61,1.93.25,3.44-.2,1.1-.33,2.38-1.3,2.63-2.53.3-1.47-1.08-2.27-.61-3.34.22-.5.61-.52,2.53-1.42,1.84-.86,2.78-1.3,3.34-1.92.35-.39.22-.38,1.42-2.83.89-1.82,1.09-2.1,1.42-3.03.48-1.38.72-2.07.51-2.73-.39-1.22-1.58-1.08-2.12-2.43-.22-.54-.03-.58-.1-2.53-.08-2.12-.3-2.17-.1-2.83.38-1.28,1.25-1.21,1.72-2.53.47-1.33.01-2.61-.1-2.93-.4-1.11-1.1-1.7-2.43-2.83-1.49-1.27-2.83-1.97-3.34-2.22-1.67-.84-2.69-1.35-4.15-1.42-.82-.04-1.17.09-1.62-.2-.81-.53-.91-1.76-1.01-3.13-.14-2.01.27-2.09,0-3.03-.56-1.96-2.69-2.89-3.03-3.03-1.6-.7-3.13-.5-3.64-.4-1.13.2-1.29.56-2.33.61-1.24.06-2.2-.4-2.83-.71-1.25-.61-1.17-.96-3.13-2.43-1.46-1.1-2.2-1.64-3.24-1.92-.8-.21-1.17-.14-2.12-.51-1.3-.5-1.39-.93-1.92-.91Z"/>
    <circle class="cls-5" cx="106.06" cy="14.24" r="9.81"/>
    <circle class="cls-1" cx="128.2" cy="32.95" r="6.07"/>
    <circle class="cls-3" cx="98.04" cy="39.75" r="11.4"/>
  </g>
</svg>